HIERARCHY
ROOT Hips
{
 OFFSET 0.000000 0.000000 0.000000
 CHANNELS 6 Xposition Yposition Zposition Yrotation Xrotation Zrotation
 JOINT Chest
 {
  OFFSET 0.000000 9.581000 -0.001100
  CHANNELS 3 Yrotation Xrotation Zrotation
  JOINT Chest2
  {
   OFFSET 0.000000 9.561100 0.002200
   CHANNELS 3 Yrotation Xrotation Zrotation
   JOINT Chest3
   {
    OFFSET 0.000000 9.521100 0.000000
    CHANNELS 3 Yrotation Xrotation Zrotation
    JOINT Chest4
    {
     OFFSET 0.000000 9.511400 0.000000
     CHANNELS 3 Yrotation Xrotation Zrotation
     JOINT Neck
     {
      OFFSET 0.000000 14.375100 0.000000
      CHANNELS 3 Yrotation Xrotation Zrotation
      JOINT Head
      {
       OFFSET 0.000000 8.901200 0.004600
       CHANNELS 3 Yrotation Xrotation Zrotation
       End Site
       {
        OFFSET 0.000000 16.962200 0.002400
       }
      }
     }
     JOINT RightCollar
     {
      OFFSET -2.920100 9.518800 0.000000
      CHANNELS 3 Yrotation Xrotation Zrotation
      JOINT RightShoulder
      {
       OFFSET -13.664500 0.000000 0.000000
       CHANNELS 3 Yrotation Xrotation Zrotation
       JOINT RightElbow
       {
        OFFSET 0.000000 -29.999200 0.000000
        CHANNELS 3 Yrotation Xrotation Zrotation
        JOINT RightWrist
        {
         OFFSET 0.000000 -24.253600 0.000000
         CHANNELS 3 Yrotation Xrotation Zrotation
         End Site
         {
          OFFSET 0.000000 -17.918900 0.000000
         }
        }
       }
      }
     }
     JOINT LeftCollar
     {
      OFFSET 2.920100 9.518800 0.000000
      CHANNELS 3 Yrotation Xrotation Zrotation
      JOINT LeftShoulder
      {
       OFFSET 13.664500 0.000000 0.000000
       CHANNELS 3 Yrotation Xrotation Zrotation
       JOINT LeftElbow
       {
        OFFSET 0.000000 -29.999200 0.000000
        CHANNELS 3 Yrotation Xrotation Zrotation
        JOINT LeftWrist
        {
         OFFSET 0.000000 -24.253600 0.000000
         CHANNELS 3 Yrotation Xrotation Zrotation
         End Site
         {
          OFFSET 0.000000 -17.918900 0.000000
         }
        }
       }
      }
     }
    }
   }
  }
 }
 JOINT RightHip
 {
  OFFSET -7.797300 0.005300 0.000500
  CHANNELS 3 Yrotation Xrotation Zrotation
  JOINT RightKnee
  {
   OFFSET 0.000000 -40.663400 -0.000500
   CHANNELS 3 Yrotation Xrotation Zrotation
   JOINT RightAnkle
   {
    OFFSET 0.000000 -39.523700 -0.000900
    CHANNELS 3 Yrotation Xrotation Zrotation
    JOINT RightToe
    {
     OFFSET 0.000000 -6.418000 14.485300
     CHANNELS 3 Yrotation Xrotation Zrotation
     End Site
     {
      OFFSET 0.000000 -1.465200 6.326400
     }
    }
   }
  }
 }
 JOINT LeftHip
 {
  OFFSET 7.797300 0.005300 0.000500
  CHANNELS 3 Yrotation Xrotation Zrotation
  JOINT LeftKnee
  {
   OFFSET 0.000000 -40.663400 -0.000500
   CHANNELS 3 Yrotation Xrotation Zrotation
   JOINT LeftAnkle
   {
    OFFSET 0.000000 -39.523700 -0.000900
    CHANNELS 3 Yrotation Xrotation Zrotation
    JOINT LeftToe
    {
     OFFSET 0.000000 -6.418000 14.485300
     CHANNELS 3 Yrotation Xrotation Zrotation
     End Site
     {
      OFFSET 0.000000 -1.465200 6.326400
     }
    }
   }
  }
 }
}
MOTION
Frames: 5
Frame Time: 0.008333
0.000000 86.422400 0.000000 0.000000 -5.767877 0.000000 0.000000 11.653817 0.000000 0.000000 -5.885947 0.000000 0.000000 -0.000000 0.000000 0.000000 -0.000000 0.000000 0.000000 12.528835 0.000000 0.000000 0.711642 0.000000 0.000000 -0.000000 0.000000 0.000000 0.000000 -90.000000 0.000000 -2.309062 0.000000 0.000000 2.309062 0.000000 0.000000 -0.000000 0.000000 0.000000 -0.000000 90.000000 0.000000 -2.309062 0.000000 0.000000 2.309062 0.000000 0.000000 8.520406 0.000000 0.000000 1.905762 0.000000 -0.000000 -4.658285 0.000000 0.000000 -0.000000 0.000000 0.000000 8.520406 0.000000 0.000000 1.905762 0.000000 -0.000000 -4.658285 0.000000 0.000000 -0.000000 0.000000
-14.671337 126.909007 23.177121 -169.497417 -48.332273 -2.853132 -2.611537 26.181554 0.142105 -0.433951 4.369632 0.106081 -0.736590 6.954956 0.174903 -2.130339 21.494006 0.190929 0.753129 15.260297 1.119376 0.505900 -9.718237 1.028129 1.727564 4.559087 2.569639 -12.217263 -12.808382 -9.085840 -113.800019 -53.330471 154.178560 -7.186135 -26.695230 -19.423446 -8.595199 -1.149616 -1.622590 -12.690161 -13.080517 13.221859 58.202996 -45.652766 -112.007045 4.522941 -8.676218 -16.865342 -4.802378 -24.000030 -4.310800 -4.369560 78.340118 -3.181752 11.264506 -13.430381 2.079617 -0.002417 0.000004 -0.001071 6.455135 5.360927 2.009390 128.498215 65.296603 147.984370 6.013895 12.648902 2.149053 -0.005158 0.017983 -0.002286
-14.673593 126.910315 23.176866 -169.443002 -48.347222 -2.883156 -2.618462 26.193097 0.132270 -0.422193 4.365995 0.099980 -0.681485 6.948017 0.151264 -2.171983 21.509410 0.235833 0.788020 15.264290 1.145303 0.623876 -9.700073 1.054399 1.718678 4.560382 2.589670 -12.177209 -12.798829 -9.067505 -113.905871 -53.359291 154.234057 -7.131972 -26.489274 -19.051426 -8.567102 -1.115928 -1.636510 -12.629446 -13.027740 13.051248 58.158814 -45.686923 -111.960209 4.525762 -8.661096 -16.870459 -4.821986 -23.981055 -4.331528 -4.334875 78.342704 -3.158022 11.326870 -13.424475 2.074398 0.000326 -0.000403 0.000144 6.439664 5.366505 2.014800 128.487109 65.294819 147.981987 6.018369 12.666692 2.120837 -0.007494 0.019980 -0.003321
-14.675176 126.910340 23.177812 -169.416694 -48.353418 -2.895350 -2.628422 26.198242 0.124230 -0.393363 4.355049 0.085185 -0.675305 6.945659 0.149366 -2.102940 21.495520 0.196217 0.855947 15.294828 1.256446 0.660750 -9.681604 1.103033 1.747352 4.558367 2.652554 -12.159907 -12.760918 -8.967590 -114.068526 -53.392364 154.340250 -7.081675 -26.216540 -18.701435 -8.647707 -1.063916 -1.545498 -12.526179 -12.967401 12.857659 58.106973 -45.730035 -111.902614 4.518447 -8.637802 -16.879734 -4.814879 -23.972284 -4.333748 -4.359167 78.348433 -3.188701 11.319020 -13.427864 2.081246 -0.001746 -0.000108 -0.000774 6.460817 5.355275 2.038778 128.482386 65.297388 147.989212 6.012572 12.668320 2.159418 -0.008712 0.013734 -0.003861
-14.675069 126.909786 23.179213 -169.387240 -48.354920 -2.919742 -2.610294 26.188975 0.123917 -0.405670 4.359622 0.094757 -0.651603 6.933807 0.137733 -2.096842 21.499050 0.201133 0.960383 15.308492 1.298637 0.696820 -9.660132 1.150573 1.797903 4.543193 2.664028 -12.107594 -12.739511 -8.874148 -114.084296 -53.409986 154.310250 -7.026956 -25.895845 -18.261766 -8.630767 -1.022794 -1.548602 -12.474939 -12.920975 12.707200 58.044644 -45.780222 -111.836834 4.500447 -8.611707 -16.892579 -4.789639 -23.963001 -4.333150 -4.460611 78.348498 -3.261313 11.300190 -13.429809 2.082076 -0.000933 0.000123 -0.000414 6.469922 5.344719 2.062742 128.493740 65.302574 148.023515 5.986794 12.649415 2.216802 0.001288 0.001498 0.000571
